<?xml version="1.0" encoding="ISO-8859-1"?>

<!-- generated by Grace-5.1.23 -->
<svg xmlns="http://www.w3.org/2000/svg" xmlns:xlink="http://www.w3.org/1999/xlink" width="11.0278in" height="7.8750in" viewBox="0.0000 0.0000 794.0000 567.0000">
 <g transform="translate(0,567.0000) scale(1,-1)">
  <g style="fill:none; stroke:#000000; stroke-width:  0.8505; stroke-linecap:butt; stroke-linejoin:miter; stroke-dasharray: 1 3">
   <path d="M147.0656,56.7000L147.0656,552.8250"/>
   <path d="M327.7969,56.7000L327.7969,552.8250"/>
   <path d="M508.5281,56.7000L508.5281,552.8250"/>
   <path d="M689.2594,56.7000L689.2594,552.8250"/>
  </g>
  <g style="fill:none; stroke:#000000; stroke-width:  0.8505; stroke-linecap:butt; stroke-linejoin:miter; stroke-dasharray: 4 3">
   <path d="M56.7000,56.7000L56.7000,552.8250"/>
   <path d="M237.4313,56.7000L237.4313,552.8250"/>
   <path d="M418.1625,56.7000L418.1625,552.8250"/>
   <path d="M598.8937,56.7000L598.8937,552.8250"/>
   <path d="M779.6250,56.7000L779.6250,552.8250"/>
  </g>
  <g style="fill:none; stroke:#000000; stroke-width:  0.8505; stroke-linecap:butt; stroke-linejoin:miter; stroke-dasharray: 1 3">
   <path d="M56.7000,118.7156L779.6250,118.7156"/>
   <path d="M56.7000,242.7469L779.6250,242.7469"/>
   <path d="M56.7000,366.7781L779.6250,366.7781"/>
   <path d="M56.7000,490.8094L779.6250,490.8094"/>
  </g>
  <g style="fill:none; stroke:#000000; stroke-width:  0.8505; stroke-linecap:butt; stroke-linejoin:miter; stroke-dasharray: 4 3">
   <path d="M56.7000,56.7000L779.6250,56.7000"/>
   <path d="M56.7000,180.7312L779.6250,180.7312"/>
   <path d="M56.7000,304.7625L779.6250,304.7625"/>
   <path d="M56.7000,428.7937L779.6250,428.7937"/>
   <path d="M56.7000,552.8250L779.6250,552.8250"/>
  </g>
  <g style="fill:none; stroke:#000000; stroke-width:  1.2758; stroke-linecap:butt; stroke-linejoin:miter; stroke-dasharray:none">
   <ellipse  rx="2.8350" ry="2.8350" cx="134.2705" cy="304.7625"/>
   <ellipse  rx="2.8350" ry="2.8350" cx="139.9484" cy="289.1865"/>
   <ellipse  rx="2.8350" ry="2.8350" cx="145.6262" cy="273.6720"/>
   <ellipse  rx="2.8350" ry="2.8350" cx="151.3040" cy="258.2802"/>
   <ellipse  rx="2.8350" ry="2.8350" cx="156.9819" cy="243.0719"/>
   <ellipse  rx="2.8350" ry="2.8350" cx="162.6597" cy="228.1070"/>
   <ellipse  rx="2.8350" ry="2.8350" cx="168.3376" cy="213.4446"/>
   <ellipse  rx="2.8350" ry="2.8350" cx="174.0154" cy="199.1426"/>
   <ellipse  rx="2.8350" ry="2.8350" cx="179.6932" cy="185.2575"/>
   <ellipse  rx="2.8350" ry="2.8350" cx="185.3711" cy="171.8440"/>
   <ellipse  rx="2.8350" ry="2.8350" cx="191.0489" cy="158.9550"/>
   <ellipse  rx="2.8350" ry="2.8350" cx="196.7268" cy="146.6415"/>
   <ellipse  rx="2.8350" ry="2.8350" cx="202.4046" cy="134.9520"/>
   <ellipse  rx="2.8350" ry="2.8350" cx="208.0824" cy="123.9327"/>
   <ellipse  rx="2.8350" ry="2.8350" cx="213.7603" cy="113.6271"/>
   <ellipse  rx="2.8350" ry="2.8350" cx="219.4381" cy="104.0757"/>
   <ellipse  rx="2.8350" ry="2.8350" cx="225.1160" cy="95.3164"/>
   <ellipse  rx="2.8350" ry="2.8350" cx="230.7938" cy="87.3837"/>
   <ellipse  rx="2.8350" ry="2.8350" cx="236.4716" cy="80.3088"/>
   <ellipse  rx="2.8350" ry="2.8350" cx="242.1495" cy="74.1198"/>
   <ellipse  rx="2.8350" ry="2.8350" cx="247.8273" cy="68.8410"/>
   <ellipse  rx="2.8350" ry="2.8350" cx="253.5051" cy="64.4933"/>
   <ellipse  rx="2.8350" ry="2.8350" cx="259.1830" cy="61.0939"/>
   <ellipse  rx="2.8350" ry="2.8350" cx="264.8608" cy="58.6560"/>
   <ellipse  rx="2.8350" ry="2.8350" cx="270.5387" cy="57.1895"/>
   <ellipse  rx="2.8350" ry="2.8350" cx="276.2165" cy="56.7000"/>
   <ellipse  rx="2.8350" ry="2.8350" cx="281.8943" cy="57.1895"/>
   <ellipse  rx="2.8350" ry="2.8350" cx="287.5722" cy="58.6560"/>
   <ellipse  rx="2.8350" ry="2.8350" cx="293.2500" cy="61.0939"/>
   <ellipse  rx="2.8350" ry="2.8350" cx="298.9279" cy="64.4933"/>
   <ellipse  rx="2.8350" ry="2.8350" cx="304.6057" cy="68.8410"/>
   <ellipse  rx="2.8350" ry="2.8350" cx="310.2835" cy="74.1198"/>
   <ellipse  rx="2.8350" ry="2.8350" cx="315.9614" cy="80.3088"/>
   <ellipse  rx="2.8350" ry="2.8350" cx="321.6392" cy="87.3837"/>
   <ellipse  rx="2.8350" ry="2.8350" cx="327.3171" cy="95.3164"/>
   <ellipse  rx="2.8350" ry="2.8350" cx="332.9949" cy="104.0757"/>
   <ellipse  rx="2.8350" ry="2.8350" cx="338.6727" cy="113.6271"/>
   <ellipse  rx="2.8350" ry="2.8350" cx="344.3506" cy="123.9327"/>
   <ellipse  rx="2.8350" ry="2.8350" cx="350.0284" cy="134.9520"/>
   <ellipse  rx="2.8350" ry="2.8350" cx="355.7063" cy="146.6415"/>
   <ellipse  rx="2.8350" ry="2.8350" cx="361.3841" cy="158.9550"/>
   <ellipse  rx="2.8350" ry="2.8350" cx="367.0619" cy="171.8440"/>
   <ellipse  rx="2.8350" ry="2.8350" cx="372.7398" cy="185.2575"/>
   <ellipse  rx="2.8350" ry="2.8350" cx="378.4176" cy="199.1426"/>
   <ellipse  rx="2.8350" ry="2.8350" cx="384.0955" cy="213.4446"/>
   <ellipse  rx="2.8350" ry="2.8350" cx="389.7733" cy="228.1070"/>
   <ellipse  rx="2.8350" ry="2.8350" cx="395.4511" cy="243.0719"/>
   <ellipse  rx="2.8350" ry="2.8350" cx="401.1290" cy="258.2802"/>
   <ellipse  rx="2.8350" ry="2.8350" cx="406.8068" cy="273.6720"/>
   <ellipse  rx="2.8350" ry="2.8350" cx="412.4847" cy="289.1865"/>
   <ellipse  rx="2.8350" ry="2.8350" cx="418.1625" cy="304.7625"/>
   <ellipse  rx="2.8350" ry="2.8350" cx="423.8403" cy="320.3385"/>
   <ellipse  rx="2.8350" ry="2.8350" cx="429.5182" cy="335.8530"/>
   <ellipse  rx="2.8350" ry="2.8350" cx="435.1960" cy="351.2448"/>
   <ellipse  rx="2.8350" ry="2.8350" cx="440.8739" cy="366.4531"/>
   <ellipse  rx="2.8350" ry="2.8350" cx="446.5517" cy="381.4180"/>
   <ellipse  rx="2.8350" ry="2.8350" cx="452.2295" cy="396.0804"/>
   <ellipse  rx="2.8350" ry="2.8350" cx="457.9074" cy="410.3824"/>
   <ellipse  rx="2.8350" ry="2.8350" cx="463.5852" cy="424.2675"/>
   <ellipse  rx="2.8350" ry="2.8350" cx="469.2631" cy="437.6810"/>
   <ellipse  rx="2.8350" ry="2.8350" cx="474.9409" cy="450.5700"/>
   <ellipse  rx="2.8350" ry="2.8350" cx="480.6187" cy="462.8835"/>
   <ellipse  rx="2.8350" ry="2.8350" cx="486.2966" cy="474.5730"/>
   <ellipse  rx="2.8350" ry="2.8350" cx="491.9744" cy="485.5923"/>
   <ellipse  rx="2.8350" ry="2.8350" cx="497.6523" cy="495.8979"/>
   <ellipse  rx="2.8350" ry="2.8350" cx="503.3301" cy="505.4493"/>
   <ellipse  rx="2.8350" ry="2.8350" cx="509.0079" cy="514.2086"/>
   <ellipse  rx="2.8350" ry="2.8350" cx="514.6858" cy="522.1413"/>
   <ellipse  rx="2.8350" ry="2.8350" cx="520.3636" cy="529.2162"/>
   <ellipse  rx="2.8350" ry="2.8350" cx="526.0415" cy="535.4052"/>
   <ellipse  rx="2.8350" ry="2.8350" cx="531.7193" cy="540.6840"/>
   <ellipse  rx="2.8350" ry="2.8350" cx="537.3971" cy="545.0317"/>
   <ellipse  rx="2.8350" ry="2.8350" cx="543.0750" cy="548.4311"/>
   <ellipse  rx="2.8350" ry="2.8350" cx="548.7528" cy="550.8690"/>
   <ellipse  rx="2.8350" ry="2.8350" cx="554.4307" cy="552.3355"/>
   <ellipse  rx="2.8350" ry="2.8350" cx="560.1085" cy="552.8250"/>
   <ellipse  rx="2.8350" ry="2.8350" cx="565.7863" cy="552.3355"/>
   <ellipse  rx="2.8350" ry="2.8350" cx="571.4642" cy="550.8690"/>
   <ellipse  rx="2.8350" ry="2.8350" cx="577.1420" cy="548.4311"/>
   <ellipse  rx="2.8350" ry="2.8350" cx="582.8199" cy="545.0317"/>
   <ellipse  rx="2.8350" ry="2.8350" cx="588.4977" cy="540.6840"/>
   <ellipse  rx="2.8350" ry="2.8350" cx="594.1755" cy="535.4052"/>
   <ellipse  rx="2.8350" ry="2.8350" cx="599.8534" cy="529.2162"/>
   <ellipse  rx="2.8350" ry="2.8350" cx="605.5312" cy="522.1413"/>
   <ellipse  rx="2.8350" ry="2.8350" cx="611.2090" cy="514.2086"/>
   <ellipse  rx="2.8350" ry="2.8350" cx="616.8869" cy="505.4493"/>
   <ellipse  rx="2.8350" ry="2.8350" cx="622.5647" cy="495.8979"/>
   <ellipse  rx="2.8350" ry="2.8350" cx="628.2426" cy="485.5923"/>
   <ellipse  rx="2.8350" ry="2.8350" cx="633.9204" cy="474.5730"/>
   <ellipse  rx="2.8350" ry="2.8350" cx="639.5982" cy="462.8835"/>
   <ellipse  rx="2.8350" ry="2.8350" cx="645.2761" cy="450.5700"/>
   <ellipse  rx="2.8350" ry="2.8350" cx="650.9539" cy="437.6810"/>
   <ellipse  rx="2.8350" ry="2.8350" cx="656.6318" cy="424.2675"/>
   <ellipse  rx="2.8350" ry="2.8350" cx="662.3096" cy="410.3824"/>
   <ellipse  rx="2.8350" ry="2.8350" cx="667.9874" cy="396.0804"/>
   <ellipse  rx="2.8350" ry="2.8350" cx="673.6653" cy="381.4180"/>
   <ellipse  rx="2.8350" ry="2.8350" cx="679.3431" cy="366.4531"/>
   <ellipse  rx="2.8350" ry="2.8350" cx="685.0210" cy="351.2448"/>
   <ellipse  rx="2.8350" ry="2.8350" cx="690.6988" cy="335.8530"/>
   <ellipse  rx="2.8350" ry="2.8350" cx="696.3766" cy="320.3385"/>
   <ellipse  rx="2.8350" ry="2.8350" cx="702.0545" cy="304.7625"/>
  </g>
  <defs>
   <pattern id="pattern4" viewBox="0 0 16 16" width="16" height="16" patternUnits="userSpaceOnUse">
     <rect fill="#FFFFFF" x="0" y="0" width="16" height="16"/>
     <rect x="0" y="15" width="1" height="1"/>
     <rect x="2" y="15" width="1" height="1"/>
     <rect x="4" y="15" width="1" height="1"/>
     <rect x="6" y="15" width="1" height="1"/>
     <rect x="8" y="15" width="1" height="1"/>
     <rect x="10" y="15" width="1" height="1"/>
     <rect x="12" y="15" width="1" height="1"/>
     <rect x="14" y="15" width="1" height="1"/>
     <rect x="1" y="14" width="1" height="1"/>
     <rect x="3" y="14" width="1" height="1"/>
     <rect x="5" y="14" width="1" height="1"/>
     <rect x="7" y="14" width="1" height="1"/>
     <rect x="9" y="14" width="1" height="1"/>
     <rect x="11" y="14" width="1" height="1"/>
     <rect x="13" y="14" width="1" height="1"/>
     <rect x="15" y="14" width="1" height="1"/>
     <rect x="0" y="13" width="1" height="1"/>
     <rect x="2" y="13" width="1" height="1"/>
     <rect x="4" y="13" width="1" height="1"/>
     <rect x="6" y="13" width="1" height="1"/>
     <rect x="8" y="13" width="1" height="1"/>
     <rect x="10" y="13" width="1" height="1"/>
     <rect x="12" y="13" width="1" height="1"/>
     <rect x="14" y="13" width="1" height="1"/>
     <rect x="1" y="12" width="1" height="1"/>
     <rect x="3" y="12" width="1" height="1"/>
     <rect x="5" y="12" width="1" height="1"/>
     <rect x="7" y="12" width="1" height="1"/>
     <rect x="9" y="12" width="1" height="1"/>
     <rect x="11" y="12" width="1" height="1"/>
     <rect x="13" y="12" width="1" height="1"/>
     <rect x="15" y="12" width="1" height="1"/>
     <rect x="0" y="11" width="1" height="1"/>
     <rect x="2" y="11" width="1" height="1"/>
     <rect x="4" y="11" width="1" height="1"/>
     <rect x="6" y="11" width="1" height="1"/>
     <rect x="8" y="11" width="1" height="1"/>
     <rect x="10" y="11" width="1" height="1"/>
     <rect x="12" y="11" width="1" height="1"/>
     <rect x="14" y="11" width="1" height="1"/>
     <rect x="1" y="10" width="1" height="1"/>
     <rect x="3" y="10" width="1" height="1"/>
     <rect x="5" y="10" width="1" height="1"/>
     <rect x="7" y="10" width="1" height="1"/>
     <rect x="9" y="10" width="1" height="1"/>
     <rect x="11" y="10" width="1" height="1"/>
     <rect x="13" y="10" width="1" height="1"/>
     <rect x="15" y="10" width="1" height="1"/>
     <rect x="0" y="9" width="1" height="1"/>
     <rect x="2" y="9" width="1" height="1"/>
     <rect x="4" y="9" width="1" height="1"/>
     <rect x="6" y="9" width="1" height="1"/>
     <rect x="8" y="9" width="1" height="1"/>
     <rect x="10" y="9" width="1" height="1"/>
     <rect x="12" y="9" width="1" height="1"/>
     <rect x="14" y="9" width="1" height="1"/>
     <rect x="1" y="8" width="1" height="1"/>
     <rect x="3" y="8" width="1" height="1"/>
     <rect x="5" y="8" width="1" height="1"/>
     <rect x="7" y="8" width="1" height="1"/>
     <rect x="9" y="8" width="1" height="1"/>
     <rect x="11" y="8" width="1" height="1"/>
     <rect x="13" y="8" width="1" height="1"/>
     <rect x="15" y="8" width="1" height="1"/>
     <rect x="0" y="7" width="1" height="1"/>
     <rect x="2" y="7" width="1" height="1"/>
     <rect x="4" y="7" width="1" height="1"/>
     <rect x="6" y="7" width="1" height="1"/>
     <rect x="8" y="7" width="1" height="1"/>
     <rect x="10" y="7" width="1" height="1"/>
     <rect x="12" y="7" width="1" height="1"/>
     <rect x="14" y="7" width="1" height="1"/>
     <rect x="1" y="6" width="1" height="1"/>
     <rect x="3" y="6" width="1" height="1"/>
     <rect x="5" y="6" width="1" height="1"/>
     <rect x="7" y="6" width="1" height="1"/>
     <rect x="9" y="6" width="1" height="1"/>
     <rect x="11" y="6" width="1" height="1"/>
     <rect x="13" y="6" width="1" height="1"/>
     <rect x="15" y="6" width="1" height="1"/>
     <rect x="0" y="5" width="1" height="1"/>
     <rect x="2" y="5" width="1" height="1"/>
     <rect x="4" y="5" width="1" height="1"/>
     <rect x="6" y="5" width="1" height="1"/>
     <rect x="8" y="5" width="1" height="1"/>
     <rect x="10" y="5" width="1" height="1"/>
     <rect x="12" y="5" width="1" height="1"/>
     <rect x="14" y="5" width="1" height="1"/>
     <rect x="1" y="4" width="1" height="1"/>
     <rect x="3" y="4" width="1" height="1"/>
     <rect x="5" y="4" width="1" height="1"/>
     <rect x="7" y="4" width="1" height="1"/>
     <rect x="9" y="4" width="1" height="1"/>
     <rect x="11" y="4" width="1" height="1"/>
     <rect x="13" y="4" width="1" height="1"/>
     <rect x="15" y="4" width="1" height="1"/>
     <rect x="0" y="3" width="1" height="1"/>
     <rect x="2" y="3" width="1" height="1"/>
     <rect x="4" y="3" width="1" height="1"/>
     <rect x="6" y="3" width="1" height="1"/>
     <rect x="8" y="3" width="1" height="1"/>
     <rect x="10" y="3" width="1" height="1"/>
     <rect x="12" y="3" width="1" height="1"/>
     <rect x="14" y="3" width="1" height="1"/>
     <rect x="1" y="2" width="1" height="1"/>
     <rect x="3" y="2" width="1" height="1"/>
     <rect x="5" y="2" width="1" height="1"/>
     <rect x="7" y="2" width="1" height="1"/>
     <rect x="9" y="2" width="1" height="1"/>
     <rect x="11" y="2" width="1" height="1"/>
     <rect x="13" y="2" width="1" height="1"/>
     <rect x="15" y="2" width="1" height="1"/>
     <rect x="0" y="1" width="1" height="1"/>
     <rect x="2" y="1" width="1" height="1"/>
     <rect x="4" y="1" width="1" height="1"/>
     <rect x="6" y="1" width="1" height="1"/>
     <rect x="8" y="1" width="1" height="1"/>
     <rect x="10" y="1" width="1" height="1"/>
     <rect x="12" y="1" width="1" height="1"/>
     <rect x="14" y="1" width="1" height="1"/>
     <rect x="1" y="0" width="1" height="1"/>
     <rect x="3" y="0" width="1" height="1"/>
     <rect x="5" y="0" width="1" height="1"/>
     <rect x="7" y="0" width="1" height="1"/>
     <rect x="9" y="0" width="1" height="1"/>
     <rect x="11" y="0" width="1" height="1"/>
     <rect x="13" y="0" width="1" height="1"/>
     <rect x="15" y="0" width="1" height="1"/>
   </pattern>
   <filter id="tocolor1" filterUnits="objectBoundingBox"
    color-interpolation-filters="sRGB" x="0%" y="0%" width="100%" height="100%">
    <feComponentTransfer>
      <feFuncR type="discrete" tableValues="0.000000 0.862745"/>
      <feFuncG type="discrete" tableValues="0.000000 0.862745"/>
      <feFuncB type="discrete" tableValues="0.000000 0.862745"/>
    </feComponentTransfer>
   </filter>
  </defs>
  <g style="fill:none; stroke:#000000; stroke-width:  1.2758; stroke-linecap:butt; stroke-linejoin:miter; stroke-dasharray:none">
   <ellipse  rx="2.8350" ry="2.8350" cx="134.2705" cy="56.7000"/>
   <ellipse  rx="2.8350" ry="2.8350" cx="139.9484" cy="57.1895"/>
   <ellipse  rx="2.8350" ry="2.8350" cx="145.6262" cy="58.6560"/>
   <ellipse  rx="2.8350" ry="2.8350" cx="151.3040" cy="61.0939"/>
   <ellipse  rx="2.8350" ry="2.8350" cx="156.9819" cy="64.4933"/>
   <ellipse  rx="2.8350" ry="2.8350" cx="162.6597" cy="68.8410"/>
   <ellipse  rx="2.8350" ry="2.8350" cx="168.3376" cy="74.1198"/>
   <ellipse  rx="2.8350" ry="2.8350" cx="174.0154" cy="80.3088"/>
   <ellipse  rx="2.8350" ry="2.8350" cx="179.6932" cy="87.3837"/>
   <ellipse  rx="2.8350" ry="2.8350" cx="185.3711" cy="95.3164"/>
   <ellipse  rx="2.8350" ry="2.8350" cx="191.0489" cy="104.0757"/>
   <ellipse  rx="2.8350" ry="2.8350" cx="196.7268" cy="113.6271"/>
   <ellipse  rx="2.8350" ry="2.8350" cx="202.4046" cy="123.9327"/>
   <ellipse  rx="2.8350" ry="2.8350" cx="208.0824" cy="134.9520"/>
   <ellipse  rx="2.8350" ry="2.8350" cx="213.7603" cy="146.6415"/>
   <ellipse  rx="2.8350" ry="2.8350" cx="219.4381" cy="158.9550"/>
   <ellipse  rx="2.8350" ry="2.8350" cx="225.1160" cy="171.8440"/>
   <ellipse  rx="2.8350" ry="2.8350" cx="230.7938" cy="185.2575"/>
   <ellipse  rx="2.8350" ry="2.8350" cx="236.4716" cy="199.1426"/>
   <ellipse  rx="2.8350" ry="2.8350" cx="242.1495" cy="213.4446"/>
   <ellipse  rx="2.8350" ry="2.8350" cx="247.8273" cy="228.1070"/>
   <ellipse  rx="2.8350" ry="2.8350" cx="253.5051" cy="243.0719"/>
   <ellipse  rx="2.8350" ry="2.8350" cx="259.1830" cy="258.2802"/>
   <ellipse  rx="2.8350" ry="2.8350" cx="264.8608" cy="273.6720"/>
   <ellipse  rx="2.8350" ry="2.8350" cx="270.5387" cy="289.1865"/>
   <ellipse  rx="2.8350" ry="2.8350" cx="276.2165" cy="304.7625"/>
   <ellipse  rx="2.8350" ry="2.8350" cx="281.8943" cy="320.3385"/>
   <ellipse  rx="2.8350" ry="2.8350" cx="287.5722" cy="335.8530"/>
   <ellipse  rx="2.8350" ry="2.8350" cx="293.2500" cy="351.2448"/>
   <ellipse  rx="2.8350" ry="2.8350" cx="298.9279" cy="366.4531"/>
   <ellipse  rx="2.8350" ry="2.8350" cx="304.6057" cy="381.4180"/>
   <ellipse  rx="2.8350" ry="2.8350" cx="310.2835" cy="396.0804"/>
   <ellipse  rx="2.8350" ry="2.8350" cx="315.9614" cy="410.3824"/>
   <ellipse  rx="2.8350" ry="2.8350" cx="321.6392" cy="424.2675"/>
   <ellipse  rx="2.8350" ry="2.8350" cx="327.3171" cy="437.6810"/>
   <ellipse  rx="2.8350" ry="2.8350" cx="332.9949" cy="450.5700"/>
   <ellipse  rx="2.8350" ry="2.8350" cx="338.6727" cy="462.8835"/>
   <ellipse  rx="2.8350" ry="2.8350" cx="344.3506" cy="474.5730"/>
   <ellipse  rx="2.8350" ry="2.8350" cx="350.0284" cy="485.5923"/>
   <ellipse  rx="2.8350" ry="2.8350" cx="355.7063" cy="495.8979"/>
   <ellipse  rx="2.8350" ry="2.8350" cx="361.3841" cy="505.4493"/>
   <ellipse  rx="2.8350" ry="2.8350" cx="367.0619" cy="514.2086"/>
   <ellipse  rx="2.8350" ry="2.8350" cx="372.7398" cy="522.1413"/>
   <ellipse  rx="2.8350" ry="2.8350" cx="378.4176" cy="529.2162"/>
   <ellipse  rx="2.8350" ry="2.8350" cx="384.0955" cy="535.4052"/>
   <ellipse  rx="2.8350" ry="2.8350" cx="389.7733" cy="540.6840"/>
   <ellipse  rx="2.8350" ry="2.8350" cx="395.4511" cy="545.0317"/>
   <ellipse  rx="2.8350" ry="2.8350" cx="401.1290" cy="548.4311"/>
   <ellipse  rx="2.8350" ry="2.8350" cx="406.8068" cy="550.8690"/>
   <ellipse  rx="2.8350" ry="2.8350" cx="412.4847" cy="552.3355"/>
   <ellipse  rx="2.8350" ry="2.8350" cx="418.1625" cy="552.8250"/>
   <ellipse  rx="2.8350" ry="2.8350" cx="423.8403" cy="552.3355"/>
   <ellipse  rx="2.8350" ry="2.8350" cx="429.5182" cy="550.8690"/>
   <ellipse  rx="2.8350" ry="2.8350" cx="435.1960" cy="548.4311"/>
   <ellipse  rx="2.8350" ry="2.8350" cx="440.8739" cy="545.0317"/>
   <ellipse  rx="2.8350" ry="2.8350" cx="446.5517" cy="540.6840"/>
   <ellipse  rx="2.8350" ry="2.8350" cx="452.2295" cy="535.4052"/>
   <ellipse  rx="2.8350" ry="2.8350" cx="457.9074" cy="529.2162"/>
   <ellipse  rx="2.8350" ry="2.8350" cx="463.5852" cy="522.1413"/>
   <ellipse  rx="2.8350" ry="2.8350" cx="469.2631" cy="514.2086"/>
   <ellipse  rx="2.8350" ry="2.8350" cx="474.9409" cy="505.4493"/>
   <ellipse  rx="2.8350" ry="2.8350" cx="480.6187" cy="495.8979"/>
   <ellipse  rx="2.8350" ry="2.8350" cx="486.2966" cy="485.5923"/>
   <ellipse  rx="2.8350" ry="2.8350" cx="491.9744" cy="474.5730"/>
   <ellipse  rx="2.8350" ry="2.8350" cx="497.6523" cy="462.8835"/>
   <ellipse  rx="2.8350" ry="2.8350" cx="503.3301" cy="450.5700"/>
   <ellipse  rx="2.8350" ry="2.8350" cx="509.0079" cy="437.6810"/>
   <ellipse  rx="2.8350" ry="2.8350" cx="514.6858" cy="424.2675"/>
   <ellipse  rx="2.8350" ry="2.8350" cx="520.3636" cy="410.3824"/>
   <ellipse  rx="2.8350" ry="2.8350" cx="526.0415" cy="396.0804"/>
   <ellipse  rx="2.8350" ry="2.8350" cx="531.7193" cy="381.4180"/>
   <ellipse  rx="2.8350" ry="2.8350" cx="537.3971" cy="366.4531"/>
   <ellipse  rx="2.8350" ry="2.8350" cx="543.0750" cy="351.2448"/>
   <ellipse  rx="2.8350" ry="2.8350" cx="548.7528" cy="335.8530"/>
   <ellipse  rx="2.8350" ry="2.8350" cx="554.4307" cy="320.3385"/>
   <ellipse  rx="2.8350" ry="2.8350" cx="560.1085" cy="304.7625"/>
   <ellipse  rx="2.8350" ry="2.8350" cx="565.7863" cy="289.1865"/>
   <ellipse  rx="2.8350" ry="2.8350" cx="571.4642" cy="273.6720"/>
   <ellipse  rx="2.8350" ry="2.8350" cx="577.1420" cy="258.2802"/>
   <ellipse  rx="2.8350" ry="2.8350" cx="582.8199" cy="243.0719"/>
   <ellipse  rx="2.8350" ry="2.8350" cx="588.4977" cy="228.1070"/>
   <ellipse  rx="2.8350" ry="2.8350" cx="594.1755" cy="213.4446"/>
   <ellipse  rx="2.8350" ry="2.8350" cx="599.8534" cy="199.1426"/>
   <ellipse  rx="2.8350" ry="2.8350" cx="605.5312" cy="185.2575"/>
   <ellipse  rx="2.8350" ry="2.8350" cx="611.2090" cy="171.8440"/>
   <ellipse  rx="2.8350" ry="2.8350" cx="616.8869" cy="158.9550"/>
   <ellipse  rx="2.8350" ry="2.8350" cx="622.5647" cy="146.6415"/>
   <ellipse  rx="2.8350" ry="2.8350" cx="628.2426" cy="134.9520"/>
   <ellipse  rx="2.8350" ry="2.8350" cx="633.9204" cy="123.9327"/>
   <ellipse  rx="2.8350" ry="2.8350" cx="639.5982" cy="113.6271"/>
   <ellipse  rx="2.8350" ry="2.8350" cx="645.2761" cy="104.0757"/>
   <ellipse  rx="2.8350" ry="2.8350" cx="650.9539" cy="95.3164"/>
   <ellipse  rx="2.8350" ry="2.8350" cx="656.6318" cy="87.3837"/>
   <ellipse  rx="2.8350" ry="2.8350" cx="662.3096" cy="80.3088"/>
   <ellipse  rx="2.8350" ry="2.8350" cx="667.9874" cy="74.1198"/>
   <ellipse  rx="2.8350" ry="2.8350" cx="673.6653" cy="68.8410"/>
   <ellipse  rx="2.8350" ry="2.8350" cx="679.3431" cy="64.4933"/>
   <ellipse  rx="2.8350" ry="2.8350" cx="685.0210" cy="61.0939"/>
   <ellipse  rx="2.8350" ry="2.8350" cx="690.6988" cy="58.6560"/>
   <ellipse  rx="2.8350" ry="2.8350" cx="696.3766" cy="57.1895"/>
   <ellipse  rx="2.8350" ry="2.8350" cx="702.0545" cy="56.7000"/>
  </g>
  <g style="fill:none; stroke:#000000; stroke-width:  0.8505; stroke-linecap:butt; stroke-linejoin:miter; stroke-dasharray:none">
   <path d="M56.7000,56.7000L779.6250,56.7000"/>
  </g>
  <g style="fill:none; stroke:#000000; stroke-width:  0.8505; stroke-linecap:butt; stroke-linejoin:miter; stroke-dasharray: 1 3">
   <path d="M147.0656,56.7000L147.0656,68.0400"/>
   <path d="M327.7969,56.7000L327.7969,68.0400"/>
   <path d="M508.5281,56.7000L508.5281,68.0400"/>
   <path d="M689.2594,56.7000L689.2594,68.0400"/>
  </g>
  <g style="fill:none; stroke:#000000; stroke-width:  0.8505; stroke-linecap:butt; stroke-linejoin:miter; stroke-dasharray: 4 3">
   <path d="M56.7000,56.7000L56.7000,68.0400"/>
   <path d="M237.4313,56.7000L237.4313,68.0400"/>
   <path d="M418.1625,56.7000L418.1625,68.0400"/>
   <path d="M598.8937,56.7000L598.8937,68.0400"/>
   <path d="M779.6250,56.7000L779.6250,68.0400"/>
  </g>
  <g style="fill:#000000; fill-rule:nonzero">
   <text   style="font-family:'Times','Nimbus Roman No9 L'; font-style:normal; font-weight:normal; font-size:567.0000" transform="matrix(0.0350,0.0000,-0.0000,-0.0350,48.7000,38.0300)">-4</text>
   <text   style="font-family:'Times','Nimbus Roman No9 L'; font-style:normal; font-weight:normal; font-size:567.0000" transform="matrix(0.0350,0.0000,-0.0000,-0.0350,228.9313,38.0300)">-2</text>
   <text   style="font-family:'Times','Nimbus Roman No9 L'; font-style:normal; font-weight:normal; font-size:567.0000" transform="matrix(0.0350,0.0000,-0.0000,-0.0350,413.6625,38.0300)">0</text>
   <text   style="font-family:'Times','Nimbus Roman No9 L'; font-style:normal; font-weight:normal; font-size:567.0000" transform="matrix(0.0350,0.0000,-0.0000,-0.0350,593.8937,38.0300)">2</text>
   <text   style="font-family:'Times','Nimbus Roman No9 L'; font-style:normal; font-weight:normal; font-size:567.0000" transform="matrix(0.0350,0.0000,-0.0000,-0.0350,775.1250,38.0300)">4</text>
   <text   style="font-family:'Times','Nimbus Roman No9 L'; font-style:normal; font-weight:normal; font-size:567.0000" transform="matrix(0.0420,0.0000,-0.0000,-0.0420,363.6625,14.3450)">Angle (rad)</text>
  </g>
  <g style="fill:none; stroke:#000000; stroke-width:  0.8505; stroke-linecap:butt; stroke-linejoin:miter; stroke-dasharray: 1 3">
   <path d="M56.7000,118.7156L68.0400,118.7156"/>
   <path d="M56.7000,242.7469L68.0400,242.7469"/>
   <path d="M56.7000,366.7781L68.0400,366.7781"/>
   <path d="M56.7000,490.8094L68.0400,490.8094"/>
  </g>
  <g style="fill:none; stroke:#000000; stroke-width:  0.8505; stroke-linecap:butt; stroke-linejoin:miter; stroke-dasharray: 4 3">
   <path d="M56.7000,56.7000L68.0400,56.7000"/>
   <path d="M56.7000,180.7312L68.0400,180.7312"/>
   <path d="M56.7000,304.7625L68.0400,304.7625"/>
   <path d="M56.7000,428.7937L68.0400,428.7937"/>
   <path d="M56.7000,552.8250L68.0400,552.8250"/>
  </g>
  <g style="fill:#000000; fill-rule:nonzero">
   <text   style="font-family:'Times','Nimbus Roman No9 L'; font-style:normal; font-weight:normal; font-size:567.0000" transform="matrix(0.0350,0.0000,-0.0000,-0.0350,36.0300,50.2000)">-1</text>
   <text   style="font-family:'Times','Nimbus Roman No9 L'; font-style:normal; font-weight:normal; font-size:567.0000" transform="matrix(0.0350,0.0000,-0.0000,-0.0350,42.0300,174.2313)">0</text>
   <text   style="font-family:'Times','Nimbus Roman No9 L'; font-style:normal; font-weight:normal; font-size:567.0000" transform="matrix(0.0350,0.0000,-0.0000,-0.0350,42.0300,298.2625)">0</text>
   <text   style="font-family:'Times','Nimbus Roman No9 L'; font-style:normal; font-weight:normal; font-size:567.0000" transform="matrix(0.0350,0.0000,-0.0000,-0.0350,42.0300,422.2937)">0</text>
   <text   style="font-family:'Times','Nimbus Roman No9 L'; font-style:normal; font-weight:normal; font-size:567.0000" transform="matrix(0.0350,0.0000,-0.0000,-0.0350,43.0300,546.3250)">1</text>
   <text   style="font-family:'Times','Nimbus Roman No9 L'; font-style:normal; font-weight:normal; font-size:567.0000" transform="matrix(0.0000,0.0420,0.0420,-0.0000,25.3450,254.2625)">Amplitude</text>
  </g>
  <g style="fill:none; stroke:#000000; stroke-width:  2.5515; stroke-linecap:butt; stroke-linejoin:miter; stroke-dasharray:none">
   <path d="M56.7000,56.7000L56.7000,552.8250L779.6250,552.8250L779.6250,56.7000z"/>
  </g>
  <g style="fill:#FFFFFF; fill-rule:nonzero">
   <path  d="M652.0500,538.6500L652.0500,499.6400L759.5750,499.6400L759.5750,538.6500z"/>
  </g>
  <g style="fill:#000000; fill-rule:nonzero">
   <text   style="font-family:'Times','Nimbus Roman No9 L'; font-style:normal; font-weight:normal; font-size:567.0000" transform="matrix(0.0280,0.0000,-0.0000,-0.0280,688.9050,521.9800)">Data Set 0</text>
  </g>
  <g style="fill:none; stroke:#000000; stroke-width:  1.2758; stroke-linecap:butt; stroke-linejoin:miter; stroke-dasharray:none">
   <ellipse  rx="2.8350" ry="2.8350" cx="669.0600" cy="527.4800"/>
  </g>
  <g style="fill:#000000; fill-rule:nonzero">
   <text   style="font-family:'Times','Nimbus Roman No9 L'; font-style:normal; font-weight:normal; font-size:567.0000" transform="matrix(0.0280,0.0000,-0.0000,-0.0280,688.9050,505.3100)">Data Set 1</text>
  </g>
  <g style="fill:none; stroke:#000000; stroke-width:  1.2758; stroke-linecap:butt; stroke-linejoin:miter; stroke-dasharray:none">
   <ellipse  rx="2.8350" ry="2.8350" cx="669.0600" cy="510.8100"/>
  </g>
 </g>
</svg>
